<svg width="162" height="231" viewBox="0 0 162 231" fill="none" xmlns="http://www.w3.org/2000/svg">
<path d="M157.991 219.801C157.991 219.801 156.224 223.262 155.507 224.728C154.296 227.103 148.656 226.594 144.803 226.623C140.517 226.656 138.531 226.615 138.531 226.615C138.531 226.615 138.679 227.509 139.632 228.956C140.554 230.355 141.804 230.828 141.804 230.828C141.804 230.828 152.634 230.392 154.321 230.18C155.709 230.005 156.985 229.595 157.919 228.602C159.748 226.655 161.649 220.371 161.761 219.788C160.429 219.788 159.209 219.776 157.991 219.801L157.991 219.801Z" fill="#A82020"/>
<path d="M153.751 56.4203C153.751 56.4203 150.547 61.4963 146.318 61.4963C146.318 61.4963 147.179 60.0025 145.408 57.8948C144.126 56.5819 141.838 55.9596 141.838 55.9596C141.838 55.9596 144.662 52.4141 139.848 43.9674C133.068 32.4154 124.768 30.9578 112.021 14.3954C107.86 8.08264 108.333 2.46291 108.333 2.46291C108.333 2.46291 104.435 6.48896 105.583 16.8622C106.191 19.5494 118.032 25.8852 125.79 36.7421C129.544 41.4819 129.794 43.9751 129.794 43.9751C129.794 43.9751 123.686 36.6502 118.673 32.2248C114.293 28.1434 107.211 23.8677 103.917 20.1751C94.9591 10.0689 95.417 0 95.417 0C95.417 0 88.4155 10.1856 91.8489 24.0243C102.952 30.3979 102.69 37.2685 102.69 37.2685C102.69 37.2685 99.8021 33.3094 93.3146 28.9845C84.8708 23.417 80.7172 24.8771 73.3175 17.2114C70.7703 14.2657 69.1804 11.3906 69.1804 11.3906C69.1804 11.3906 66.3685 16.605 71.552 25.5393C65.9448 24.0656 61.3534 23.7843 55.5229 23.8679C55.5229 23.8679 64.1744 27.8716 64.1744 33.3523C64.1744 39.3019 58.2898 39.4161 50.3675 42.5994C41.9533 46.0241 37.9141 49.508 37.9141 49.508C37.9141 49.508 46.257 47.9285 52.0488 49.8151C63.8944 54.1477 55.7547 66.47 55.7547 66.47C55.7547 66.47 64.2138 60.8122 68.7918 58.6361C73.3698 56.4597 78.2115 54.7605 83.4117 53.6645C83.4117 53.6645 78.6571 51.9285 73.3079 51.65C75.8925 49.218 79.0447 47.5195 82.5353 46.2746C95.9375 41.589 104.143 44.4301 104.143 44.4301C96.9523 44.7678 90.0852 46.1016 83.7561 49.4419C87.3276 50.3323 94.247 52.2468 94.247 52.2468C94.247 52.2468 90.4921 52.842 85.5332 57.4092C80.2379 62.0735 79.6937 64.9878 79.6937 64.9878C79.6937 64.9878 83.5315 63.0349 88.7905 63.0349C96.1572 63.0349 102.563 68.0598 102.563 73.1703C102.563 79.546 96.7048 83.6272 96.7048 83.6272C101.01 83.841 105.258 82.9428 105.258 82.9428C102.855 87.7668 97.7471 89.9388 97.7471 89.9388C97.7471 89.9388 105.878 88.6725 107.678 88.0766C118.532 84.6186 118.047 80.4688 118.047 80.4688C118.047 80.4688 115.236 80.8702 113.848 80.5688C112.803 80.342 111.96 79.9223 111.455 78.9599C110.188 76.4945 112.124 72.669 112.124 72.669C112.124 72.669 109.8 72.2961 109.358 72.1513C107.469 71.5313 106.886 70.5323 107.017 68.958C107.4 65.5527 109.282 62.5429 110.485 60.753C106.741 59.0419 99.6507 59.1896 99.6507 59.1896C99.6507 59.1896 104.172 57.1678 115.018 57.1678C125.345 57.1678 127.535 58.2597 127.535 61.0147C127.535 64.6005 124.499 66.6782 124.499 66.6782C124.499 66.6782 131.619 66.1746 136.829 68.4497C142.85 71.4512 141.188 78.2126 141.188 78.2126C141.188 78.2126 146.473 76.4074 149.654 71.1606C155.509 60.7135 153.751 56.4212 153.751 56.4212V56.4203ZM122.472 51.3135C117.654 47.1372 118.04 43.5146 118.04 43.5146C121.087 43.5623 127.76 49.9035 128.068 53.0366C128.068 53.0366 125.559 53.9298 122.472 51.3135Z" fill="#A82020"/>
<path d="M143.666 223.826C148.064 223.793 152.48 223.206 153.565 223.072C154.122 223.003 154.383 222.819 154.831 222.16C155.541 220.677 157.331 215.25 157.331 215.25C157.331 215.25 154.672 216.445 153.433 216.858C147.966 218.808 142.901 217.917 135.022 216.596C133.441 216.333 133.159 213.789 133.159 213.789C133.159 213.789 131.269 215.682 130.347 216.566C129.966 216.931 129.908 217.283 130.127 217.74C130.989 219.533 132.839 222.813 133.841 222.968C134.807 223.335 139.227 223.859 143.666 223.826Z" fill="#A82020"/>
<path d="M140.309 205.086C138.896 205.669 137.47 206.225 136.061 206.814C135.88 206.89 135.691 207.083 135.641 207.252C135.176 208.825 134.742 210.404 134.258 212.126C134.258 212.126 136.656 213.788 145.34 214.536C151.258 215.059 154.185 210.917 154.185 210.917C154.185 210.917 148.645 209.559 146.076 208.723C144.303 208.146 142.146 206.702 141.071 205.28C140.829 204.959 140.656 204.943 140.309 205.086L140.309 205.086Z" fill="#A82020"/>
<path d="M59.399 138.65C59.341 137.786 60.2643 137.51 61.2029 137.9C62.2933 138.381 92 164.317 141 164.317V141.932V123.593C48.9369 106.546 48.9369 79.8113 48.9369 62.0379C48.9369 57.8787 53.2852 54.1374 53.2852 54.1374C53.2852 54.1374 50.3421 51.4595 44.6054 51.4595C36.7614 51.4595 32.7145 52.9625 32.7145 52.9625C32.7145 52.9625 32.9076 48.822 39.2764 44.8774C43.5461 41.8644 51.8462 39.0949 58.966 35.6077C59.9107 34.9833 60.4961 34.1084 60.4153 32.9982C60.3184 31.6697 59.485 30.6482 58.5483 29.7007C56.3663 27.4932 53.7055 25.785 50.9963 24.1318C50.1103 23.5913 49.2344 23.0381 48.2995 22.457C54.4756 20.7489 60.6339 21.0797 66.8275 22.0916C64.3313 16.5708 64.918 11.5116 69.417 6.94733C69.417 6.94733 72.9751 13.2774 76.8672 16.4823C82.461 20.6823 88.7218 23.2428 88.7218 23.2428C88.7218 23.2428 87.5386 20.3887 87.7362 15.8021C87.875 12.5782 88.2528 10.463 88.2528 10.463C88.2641 10.463 76.0546 3.68359 65.7914 3.68359C52.3732 3.68359 43.5688 6.7775 43.5688 6.7775C43.5688 6.7775 49.2225 7.4256 49.2225 8.85151C49.2225 12.1677 33.7418 12.0512 20.9533 20.8373C10.9497 27.327 8.80124 36.3661 8.80124 36.3661C8.80124 36.3661 10.9554 34.5324 12.8059 34.6006C13.1526 34.6227 13.398 34.7451 13.5474 34.927C13.3432 38.3435 3.59945 46.8137 0.801916 59.4246C-1.92222 70.1345 3.16779 78.1982 3.16779 78.1982C3.16779 78.1982 3.4305 75.5632 4.87614 74.5383C5.3302 74.2362 5.77912 74.2893 6.10621 74.5638C7.62139 80.5072 7.57426 92.6909 11.7912 100.834C16.6465 110.936 26.099 114.85 26.099 114.85C26.099 114.85 24.5737 112.576 25.0708 110.997C25.3621 110.17 26.3874 110.16 27.0576 110.86C30.8451 114.819 34.5565 125.995 42.9153 133.304C51.4949 141.231 61.9008 141.932 61.9008 141.932C61.9008 141.932 59.5653 140.282 59.399 138.65Z" fill="#A82020"/>
</svg>
