<svg width="334" height="44" viewBox="0 0 334 44" fill="none" xmlns="http://www.w3.org/2000/svg">
<g clip-path="url(#clip0_1280_125313)">
<path d="M19.86 42.7388C19.47 42.9688 19.03 43.0788 18.59 43.0788C18.15 43.0788 17.71 42.9688 17.32 42.7388L1.27 33.4688C0.48 33.0088 0 32.1788 0 31.2688V12.7288C0 11.8188 0.48 10.9888 1.27 10.5288L17.33 1.25876C18.12 0.808765 19.08 0.808765 19.87 1.25876L35.93 10.5288C36.72 10.9788 37.2 11.8188 37.2 12.7288V31.2688C37.2 32.1788 36.72 33.0088 35.93 33.4688L19.87 42.7388H19.86Z" fill="url(#paint0_linear_1280_125313)"/>
<path d="M18.6803 36.0087C18.1403 36.0087 17.6203 35.8687 17.1503 35.5987C13.2603 33.3887 6.88025 29.8087 6.02025 29.4287C5.77025 29.3687 5.55025 29.1987 5.41025 28.9587C5.17025 28.5287 5.29025 27.9787 5.69025 27.6887C7.63025 26.2987 9.90025 25.2287 12.3303 24.5387C10.4203 22.7587 9.29025 20.2387 9.29025 17.5687C9.29025 12.3287 13.5603 8.05872 18.8003 8.05872C24.0402 8.05872 28.3102 12.3287 28.3102 17.5687C28.3102 20.2387 27.1803 22.7587 25.2703 24.5387C27.5403 25.1787 29.6702 26.1587 31.5303 27.4287C31.8103 27.6187 31.9702 27.9387 31.9602 28.2687C31.9502 28.5987 31.7603 28.9087 31.4702 29.0787L20.1903 35.5887C19.7303 35.8587 19.2003 35.9987 18.6603 35.9987L18.6803 36.0087ZM8.24025 28.3787C9.86025 29.2287 12.7503 30.8587 18.1203 33.9087C18.4703 34.1087 18.9003 34.1087 19.2303 33.9087L29.1003 28.2087C27.2003 27.1487 25.0602 26.3787 22.8302 25.9787C22.4303 25.9087 22.1103 25.5887 22.0403 25.1787C21.9703 24.7787 22.1602 24.3687 22.5203 24.1687C24.9002 22.8287 26.3802 20.2987 26.3802 17.5787C26.3802 13.4087 22.9902 10.0187 18.8203 10.0187C14.6503 10.0187 11.2603 13.4087 11.2603 17.5787C11.2603 20.3087 12.7403 22.8287 15.1103 24.1687C15.4703 24.3687 15.6603 24.7787 15.5903 25.1787C15.5203 25.5887 15.2103 25.8987 14.8003 25.9787C12.4403 26.4087 10.2002 27.2287 8.23025 28.3687L8.24025 28.3787Z" fill="white"/>
<path d="M152.988 33.9201C150.998 32.8201 149.458 31.2401 148.368 29.1901C147.278 27.1401 146.738 24.7301 146.738 21.9801C146.738 19.2301 147.278 16.8601 148.368 14.8101C149.458 12.7601 150.998 11.1801 152.988 10.0801C154.978 8.98005 157.298 8.43005 159.948 8.43005C163.128 8.43005 165.918 9.27005 168.318 10.9501C168.748 11.2501 169.048 11.5801 169.238 11.9301C169.428 12.2801 169.518 12.7301 169.518 13.2801C169.518 14.0601 169.298 14.7101 168.858 15.2501C168.418 15.7901 167.888 16.0601 167.258 16.0601C166.878 16.0601 166.548 16.0001 166.248 15.8901C165.948 15.7801 165.598 15.6001 165.198 15.3501C164.318 14.8201 163.498 14.4501 162.718 14.2201C161.938 13.9901 161.138 13.8801 160.318 13.8801C158.088 13.8801 156.428 14.5501 155.348 15.8901C154.268 17.2301 153.718 19.2601 153.718 21.9901C153.718 24.7201 154.258 26.7901 155.348 28.1301C156.438 29.4701 158.098 30.1401 160.318 30.1401C161.068 30.1401 161.798 30.0201 162.498 29.7801C163.198 29.5401 164.098 29.1701 165.198 28.6701C165.728 28.3901 166.108 28.2101 166.358 28.1101C166.608 28.0101 166.908 27.9601 167.258 27.9601C167.888 27.9601 168.418 28.2301 168.858 28.7701C169.298 29.3101 169.518 29.9701 169.518 30.7401C169.518 31.2701 169.428 31.7101 169.238 32.0701C169.048 32.4301 168.748 32.7601 168.318 33.0601C165.918 34.7401 163.128 35.5801 159.948 35.5801C157.298 35.5801 154.978 35.0301 152.988 33.9301V33.9201Z" fill="#29212E"/>
<path d="M189.038 18.2801C190.088 19.5901 190.618 21.5901 190.618 24.2701V32.3801C190.618 33.3301 190.318 34.0801 189.718 34.6301C189.118 35.1801 188.308 35.4601 187.278 35.4601C186.248 35.4601 185.438 35.1801 184.838 34.6301C184.238 34.0801 183.938 33.3301 183.938 32.3801V24.1201C183.938 22.3201 183.158 21.4201 181.608 21.4201C180.608 21.4201 179.808 21.7401 179.228 22.3801C178.638 23.0201 178.348 23.8801 178.348 24.9501V32.3801C178.348 33.3301 178.048 34.0801 177.448 34.6301C176.848 35.1801 176.038 35.4601 175.008 35.4601C173.978 35.4601 173.168 35.1801 172.568 34.6301C171.968 34.0801 171.668 33.3301 171.668 32.3801V11.5801C171.668 10.7001 171.978 9.98008 172.608 9.42008C173.238 8.86008 174.058 8.58008 175.088 8.58008C176.118 8.58008 176.848 8.84008 177.458 9.37008C178.058 9.90008 178.358 10.6001 178.358 11.4701V18.9801C179.038 18.1001 179.868 17.4401 180.878 16.9901C181.878 16.5401 183.008 16.3101 184.258 16.3101C186.408 16.3101 188.008 16.9701 189.068 18.2801H189.038Z" fill="#29212E"/>
<path d="M208.548 18.36C209.908 19.72 210.598 21.8 210.598 24.57V32.42C210.598 33.37 210.318 34.12 209.758 34.65C209.198 35.19 208.408 35.46 207.408 35.46C206.528 35.46 205.808 35.21 205.248 34.71C204.688 34.21 204.378 33.5301 204.328 32.68C203.978 33.58 203.388 34.28 202.568 34.78C201.738 35.28 200.748 35.53 199.598 35.53C198.318 35.53 197.168 35.27 196.148 34.76C195.118 34.25 194.318 33.53 193.728 32.62C193.138 31.71 192.848 30.67 192.848 29.52C192.848 28.19 193.188 27.14 193.878 26.35C194.568 25.56 195.658 24.99 197.168 24.64C198.668 24.29 200.698 24.11 203.248 24.11H204.258V23.66C204.258 22.78 204.058 22.15 203.658 21.76C203.258 21.37 202.578 21.18 201.628 21.18C200.598 21.18 199.098 21.53 197.118 22.23C196.538 22.43 196.058 22.53 195.658 22.53C195.028 22.53 194.528 22.3 194.158 21.85C193.778 21.4 193.598 20.81 193.598 20.09C193.598 19.54 193.708 19.09 193.938 18.74C194.158 18.39 194.528 18.08 195.028 17.8C195.908 17.35 197.008 16.99 198.328 16.71C199.658 16.43 200.958 16.3 202.228 16.3C205.078 16.3 207.188 16.98 208.558 18.35L208.548 18.36ZM203.388 30.11C203.968 29.47 204.248 28.65 204.248 27.65V27.2H203.648C202.048 27.2 200.908 27.34 200.228 27.63C199.548 27.92 199.218 28.4 199.218 29.08C199.218 29.66 199.398 30.13 199.758 30.51C200.118 30.89 200.588 31.07 201.168 31.07C202.068 31.07 202.808 30.75 203.388 30.11Z" fill="#29212E"/>
<path d="M226.789 16.9701C227.289 17.4301 227.539 18.1201 227.539 19.0201C227.539 20.0201 227.309 20.7501 226.849 21.2001C226.389 21.6501 225.549 21.9401 224.349 22.0601L223.219 22.1701C221.969 22.3201 221.069 22.7101 220.539 23.3501C219.999 23.9901 219.729 24.8601 219.729 25.9601V32.3801C219.729 33.4101 219.409 34.1801 218.769 34.6901C218.129 35.2001 217.339 35.4601 216.389 35.4601C215.439 35.4601 214.639 35.2001 214.009 34.6901C213.369 34.1801 213.049 33.4101 213.049 32.3801V19.3901C213.049 18.4401 213.369 17.7001 214.009 17.1701C214.649 16.6401 215.419 16.3801 216.319 16.3801C217.219 16.3801 217.989 16.6301 218.549 17.1301C219.109 17.6301 219.399 18.3301 219.399 19.2301V19.9401C219.799 18.8401 220.459 17.9901 221.369 17.3901C222.279 16.7901 223.239 16.4601 224.239 16.4101L224.769 16.3701C225.619 16.3001 226.299 16.4901 226.799 16.9501L226.789 16.9701Z" fill="#29212E"/>
<path d="M243.679 18.36C245.039 19.72 245.729 21.8 245.729 24.57V32.42C245.729 33.37 245.449 34.12 244.889 34.65C244.329 35.19 243.539 35.46 242.539 35.46C241.659 35.46 240.939 35.21 240.379 34.71C239.819 34.21 239.509 33.5301 239.459 32.68C239.109 33.58 238.519 34.28 237.699 34.78C236.869 35.28 235.879 35.53 234.729 35.53C233.449 35.53 232.299 35.27 231.279 34.76C230.249 34.25 229.449 33.53 228.859 32.62C228.269 31.71 227.979 30.67 227.979 29.52C227.979 28.19 228.319 27.14 229.009 26.35C229.699 25.56 230.789 24.99 232.299 24.64C233.799 24.29 235.829 24.11 238.379 24.11H239.389V23.66C239.389 22.78 239.189 22.15 238.789 21.76C238.389 21.37 237.709 21.18 236.759 21.18C235.729 21.18 234.229 21.53 232.249 22.23C231.669 22.43 231.189 22.53 230.789 22.53C230.159 22.53 229.659 22.3 229.289 21.85C228.909 21.4 228.729 20.81 228.729 20.09C228.729 19.54 228.839 19.09 229.069 18.74C229.289 18.39 229.659 18.08 230.159 17.8C231.039 17.35 232.139 16.99 233.459 16.71C234.789 16.43 236.089 16.3 237.359 16.3C240.209 16.3 242.319 16.98 243.689 18.35L243.679 18.36ZM238.519 30.11C239.099 29.47 239.379 28.65 239.379 27.65V27.2H238.779C237.179 27.2 236.039 27.34 235.359 27.63C234.679 27.92 234.349 28.4 234.349 29.08C234.349 29.66 234.529 30.13 234.889 30.51C235.249 30.89 235.719 31.07 236.299 31.07C237.199 31.07 237.939 30.75 238.519 30.11Z" fill="#29212E"/>
<path d="M249.929 32.98C248.179 31.28 247.299 28.96 247.299 26.03C247.299 24.1 247.729 22.4 248.579 20.92C249.429 19.44 250.629 18.31 252.169 17.5C253.709 16.7 255.469 16.3 257.449 16.3C258.499 16.3 259.549 16.44 260.599 16.71C261.649 16.98 262.579 17.37 263.379 17.87C264.159 18.35 264.539 19.07 264.539 20.05C264.539 20.83 264.359 21.46 263.999 21.95C263.639 22.44 263.169 22.68 262.589 22.68C262.209 22.68 261.849 22.62 261.499 22.51C261.149 22.4 260.759 22.23 260.339 22C259.839 21.77 259.409 21.61 259.059 21.49C258.709 21.38 258.319 21.32 257.899 21.32C255.419 21.32 254.179 22.83 254.179 25.86C254.179 27.36 254.499 28.51 255.139 29.3C255.779 30.09 256.699 30.48 257.899 30.48C258.329 30.48 258.719 30.42 259.079 30.31C259.439 30.2 259.849 30.03 260.299 29.8C260.799 29.57 261.209 29.41 261.519 29.29C261.829 29.18 262.179 29.12 262.549 29.12C263.129 29.12 263.589 29.36 263.959 29.85C264.319 30.34 264.499 30.97 264.499 31.75C264.499 32.23 264.399 32.66 264.199 33.05C263.999 33.44 263.719 33.73 263.369 33.93C261.639 34.98 259.539 35.51 257.059 35.51C254.059 35.51 251.679 34.66 249.929 32.96V32.98Z" fill="#29212E"/>
<path d="M281.729 32.9401C281.729 33.8201 281.389 34.4701 280.719 34.8901C280.049 35.3101 279.079 35.4901 277.829 35.4201L276.779 35.3501C274.529 35.1801 272.819 34.4901 271.649 33.3001C270.489 32.1101 269.899 30.4501 269.899 28.3301V21.6801H268.809C266.809 21.6801 265.809 20.8501 265.809 19.2001C265.809 17.5501 266.809 16.7601 268.809 16.7601H269.899V14.3201C269.899 13.3701 270.199 12.6101 270.799 12.0501C271.399 11.4901 272.209 11.2101 273.239 11.2101C274.269 11.2101 275.079 11.4901 275.679 12.0501C276.279 12.6101 276.579 13.3701 276.579 14.3201V16.7601H278.649C280.649 16.7601 281.649 17.5701 281.649 19.2001C281.649 20.8301 280.649 21.6801 278.649 21.6801H276.579V28.8901C276.579 29.3701 276.719 29.7701 277.009 30.0901C277.299 30.4201 277.669 30.5901 278.119 30.6201L279.209 30.6901C280.889 30.7901 281.729 31.5401 281.729 32.9401Z" fill="#29212E"/>
<path d="M299.358 29.9801C299.718 30.4301 299.898 31.0201 299.898 31.7401C299.898 32.7401 299.408 33.5001 298.438 34.0301C297.588 34.4601 296.578 34.8101 295.418 35.1001C294.258 35.3901 293.188 35.5301 292.208 35.5301C290.158 35.5301 288.368 35.1401 286.838 34.3701C285.308 33.5901 284.138 32.4801 283.308 31.0301C282.478 29.5801 282.068 27.8801 282.068 25.9201C282.068 24.0701 282.458 22.4101 283.248 20.9501C284.038 19.4901 285.138 18.3501 286.548 17.5301C287.958 16.7201 289.558 16.3101 291.338 16.3101C293.118 16.3101 294.578 16.6801 295.878 17.4401C297.178 18.2001 298.188 19.2601 298.898 20.6301C299.608 22.0101 299.968 23.6201 299.968 25.4701C299.968 26.0501 299.838 26.4901 299.578 26.8001C299.318 27.1101 298.938 27.2701 298.438 27.2701H288.528C288.698 28.4701 289.088 29.3401 289.688 29.8601C290.288 30.3901 291.178 30.6501 292.358 30.6501C292.988 30.6501 293.558 30.5801 294.088 30.4401C294.618 30.3001 295.198 30.1101 295.848 29.8601C296.228 29.7101 296.588 29.5801 296.958 29.4701C297.318 29.3601 297.648 29.3001 297.948 29.3001C298.528 29.3001 298.988 29.5201 299.358 29.9801ZM289.428 21.6601C288.898 22.2201 288.588 23.0401 288.488 24.1201H294.388C294.238 21.9201 293.288 20.8201 291.538 20.8201C290.658 20.8201 289.958 21.1001 289.438 21.6601H289.428Z" fill="#29212E"/>
<path d="M316.238 16.9701C316.738 17.4301 316.988 18.1201 316.988 19.0201C316.988 20.0201 316.758 20.7501 316.298 21.2001C315.838 21.6501 314.998 21.9401 313.798 22.0601L312.668 22.1701C311.418 22.3201 310.518 22.7101 309.988 23.3501C309.448 23.9901 309.178 24.8601 309.178 25.9601V32.3801C309.178 33.4101 308.858 34.1801 308.218 34.6901C307.578 35.2001 306.788 35.4601 305.838 35.4601C304.888 35.4601 304.088 35.2001 303.458 34.6901C302.818 34.1801 302.498 33.4101 302.498 32.3801V19.3901C302.498 18.4401 302.818 17.7001 303.458 17.1701C304.098 16.6401 304.868 16.3801 305.768 16.3801C306.668 16.3801 307.438 16.6301 307.998 17.1301C308.558 17.6301 308.848 18.3301 308.848 19.2301V19.9401C309.248 18.8401 309.908 17.9901 310.818 17.3901C311.728 16.7901 312.688 16.4601 313.688 16.4101L314.218 16.3701C315.068 16.3001 315.748 16.4901 316.248 16.9501L316.238 16.9701Z" fill="#29212E"/>
<path d="M321.107 35.1601C319.957 34.9101 318.937 34.5101 318.067 33.9601C317.717 33.7901 317.437 33.4801 317.237 33.0601C317.037 32.6301 316.938 32.1601 316.938 31.6301C316.938 30.9501 317.117 30.4001 317.477 29.9601C317.837 29.5201 318.298 29.3001 318.848 29.3001C319.228 29.3001 319.577 29.3401 319.897 29.4301C320.217 29.5201 320.628 29.6601 321.098 29.8601C321.898 30.1401 322.607 30.3501 323.217 30.5001C323.827 30.6501 324.617 30.7301 325.567 30.7301C326.247 30.7301 326.777 30.6401 327.167 30.4501C327.557 30.2601 327.747 29.9901 327.747 29.6401C327.747 29.3601 327.657 29.1501 327.467 29.0001C327.277 28.8501 326.927 28.7101 326.397 28.5701C325.867 28.4301 324.987 28.2401 323.727 27.9901C321.497 27.5601 319.888 26.9201 318.908 26.0601C317.928 25.2001 317.427 23.9801 317.427 22.4001C317.427 21.2501 317.787 20.2101 318.497 19.2801C319.207 18.3501 320.197 17.6301 321.447 17.1001C322.697 16.5701 324.098 16.3101 325.658 16.3101C326.788 16.3101 327.877 16.4501 328.947 16.7201C330.007 17.0001 330.957 17.3801 331.787 17.8801C332.567 18.3301 332.947 19.0601 332.947 20.0601C332.947 20.7601 332.757 21.3501 332.387 21.8201C332.007 22.3001 331.547 22.5301 330.997 22.5301C330.347 22.5301 329.567 22.3201 328.667 21.8901C328.067 21.6101 327.537 21.4101 327.067 21.2701C326.607 21.1301 326.057 21.0601 325.438 21.0601C324.818 21.0601 324.327 21.1501 323.977 21.3401C323.627 21.5301 323.447 21.8001 323.447 22.1501C323.447 22.5501 323.687 22.8601 324.177 23.0901C324.667 23.3201 325.637 23.5701 327.087 23.8401C329.517 24.2701 331.227 24.9101 332.227 25.7701C333.227 26.6301 333.727 27.8801 333.727 29.5101C333.727 31.3401 332.967 32.8001 331.457 33.8801C329.937 34.9701 327.907 35.5101 325.357 35.5101C323.677 35.5101 322.267 35.3801 321.117 35.1301L321.107 35.1601Z" fill="#29212E"/>
<path d="M70.9292 33.05C70.9292 33.88 70.5892 34.57 69.8992 35.13C69.2092 35.69 68.4192 35.97 67.5092 35.97C66.8892 35.97 66.3092 35.83 65.7592 35.54C65.2192 35.26 64.7492 34.83 64.3592 34.26L59.3092 26.88C58.9492 26.36 58.5692 25.98 58.1592 25.73C57.7592 25.48 57.2892 25.36 56.7392 25.36H54.2192V32.31C54.2192 33.4 53.9092 34.26 53.2892 34.89C52.6692 35.52 51.8092 35.84 50.7292 35.84C49.6492 35.84 48.7792 35.52 48.1492 34.89C47.5192 34.26 47.1992 33.39 47.1992 32.31V11.53C47.1992 10.47 47.4792 9.64998 48.0492 9.07998C48.6192 8.50998 49.4392 8.22998 50.4992 8.22998H60.2492C63.5592 8.22998 66.0592 8.94998 67.7292 10.39C69.3992 11.83 70.2392 13.91 70.2392 16.62C70.2392 18.69 69.6692 20.45 68.5292 21.88C67.3892 23.32 65.7792 24.28 63.7092 24.77C64.5592 24.9 65.3092 25.18 65.9392 25.62C66.5692 26.06 67.1992 26.72 67.8192 27.6L70.2292 31.06C70.6992 31.76 70.9292 32.42 70.9292 33.04V33.05ZM62.5192 19.26C63.2092 18.77 63.5492 17.97 63.5492 16.85C63.5492 15.73 63.2092 14.89 62.5192 14.38C61.8292 13.88 60.6992 13.62 59.1192 13.62H54.1492V19.99H59.1192C60.6992 19.99 61.8292 19.74 62.5192 19.25V19.26Z" fill="#29212E"/>
<path d="M75.3494 34.7C73.7594 33.88 72.5294 32.73 71.6594 31.22C70.7894 29.72 70.3594 27.96 70.3594 25.94C70.3594 23.92 70.7894 22.17 71.6594 20.68C72.5294 19.19 73.7494 18.05 75.3294 17.24C76.9094 16.44 78.7594 16.04 80.8794 16.04C82.9994 16.04 84.8594 16.44 86.4294 17.24C88.0094 18.04 89.2294 19.19 90.0994 20.68C90.9694 22.17 91.3994 23.92 91.3994 25.94C91.3994 27.96 90.9694 29.72 90.0994 31.22C89.2294 32.72 88.0094 33.88 86.4294 34.7C84.8494 35.52 82.9994 35.92 80.8794 35.92C78.7594 35.92 76.9394 35.51 75.3394 34.7H75.3494ZM84.5794 25.94C84.5794 22.73 83.3494 21.12 80.8894 21.12C78.4294 21.12 77.1994 22.73 77.1994 25.94C77.1994 29.15 78.4294 30.76 80.8894 30.76C83.3494 30.76 84.5794 29.15 84.5794 25.94Z" fill="#29212E"/>
<path d="M93.3396 35.05C92.6796 34.52 92.3496 33.72 92.3496 32.66V11.26C92.3496 10.2 92.6796 9.40003 93.3396 8.85003C93.9996 8.31003 94.8196 8.03003 95.8096 8.03003C96.7996 8.03003 97.6196 8.30003 98.2796 8.85003C98.9396 9.39003 99.2696 10.2 99.2696 11.26V32.66C99.2696 33.72 98.9396 34.52 98.2796 35.05C97.6196 35.58 96.7996 35.85 95.8096 35.85C94.8196 35.85 93.9996 35.58 93.3396 35.05Z" fill="#29212E"/>
<path d="M101.709 35.05C101.049 34.52 100.719 33.72 100.719 32.66V11.26C100.719 10.2 101.049 9.40003 101.709 8.85003C102.369 8.31003 103.189 8.03003 104.179 8.03003C105.169 8.03003 105.989 8.30003 106.649 8.85003C107.309 9.39003 107.639 10.2 107.639 11.26V32.66C107.639 33.72 107.309 34.52 106.649 35.05C105.989 35.58 105.169 35.85 104.179 35.85C103.189 35.85 102.369 35.58 101.709 35.05Z" fill="#29212E"/>
<path d="M118.299 8.84009C123.739 8.84009 126.199 12.3001 126.199 15.7701C126.199 19.9001 123.699 21.9501 118.149 24.9701C113.569 27.4701 111.109 29.5101 110.849 33.4301H126.199V34.8101H109.439V34.1001C109.439 28.5501 113.089 26.1301 117.519 23.7401C122.879 20.8301 124.819 19.2001 124.819 15.7701C124.819 13.2001 123.109 10.1801 118.299 10.1801C114.019 10.1801 111.329 13.1201 111.299 17.3701H109.919C109.919 12.8301 112.829 8.84009 118.299 8.84009Z" fill="#29212E"/>
<path d="M145.058 22.07C145.058 31.79 140.398 35.29 136.078 35.29C131.758 35.29 127.068 31.79 127.068 22.07C127.068 12.35 131.728 8.84998 136.078 8.84998C140.428 8.84998 145.058 12.31 145.058 22.07ZM143.678 22.07C143.678 14.62 140.848 10.15 136.078 10.15C131.308 10.15 128.438 14.62 128.438 22.07C128.438 29.52 131.268 33.95 136.078 33.95C140.888 33.95 143.678 29.48 143.678 22.07Z" fill="#29212E"/>
</g>
<defs>
<linearGradient id="paint0_linear_1280_125313" x1="9.3" y1="38.0988" x2="27.89" y2="5.89877" gradientUnits="userSpaceOnUse">
<stop stop-color="#792696"/>
<stop offset="0.15" stop-color="#7D2495"/>
<stop offset="0.32" stop-color="#8B2093"/>
<stop offset="0.5" stop-color="#A11991"/>
<stop offset="0.69" stop-color="#C10F8D"/>
<stop offset="0.88" stop-color="#E90388"/>
<stop offset="0.93" stop-color="#F60087"/>
</linearGradient>
<clipPath id="clip0_1280_125313">
<rect width="333.73" height="42.1575" fill="white" transform="translate(0 0.921265)"/>
</clipPath>
</defs>
</svg>
